<svg xmlns="http://www.w3.org/2000/svg" viewBox="0 0 500 500"><g id="freepik--Plants--inject-3"><g id="freepik--plants--inject-3"><path d="M480.79,269.7c-2.16,3.79-5.39,9-8.43,14.64-4.54,8.43-8.64,17.82-8,24.75l0,.71h0l-.53,10.65-.07,1.45-2.52-1.46L455,316.87a91.5,91.5,0,0,1-.15-34.78c2.43-13.92,12.18-29.22,20.4-30C482.89,251.26,486.17,260.26,480.79,269.7Z" style="fill:#e0e0e0"></path><path d="M458.41,316.47a.48.48,0,0,0,.29-.52c-3.21-25.78,7.4-49.55,18.2-58.15a.49.49,0,0,0,.07-.69.47.47,0,0,0-.69-.08c-11,8.74-21.81,32.91-18.55,59.05a.48.48,0,0,0,.55.42A.31.31,0,0,0,458.41,316.47Z" style="fill:#fff"></path><path d="M490.23,286c-.85,5-9.92,10.88-15.92,19-5.41,7.31-7.78,14.73-7.58,18.67h0l-3-1.74-2.52-1.46c-1.38-18.28,5.35-28.94,11.18-36.1a18.09,18.09,0,0,1,6.39-4.75C486.71,276.4,491.25,280,490.23,286Z" style="fill:#f0f0f0"></path><path d="M463.89,320.41a.47.47,0,0,0,.29-.44c.31-21,12.32-32.36,18.62-35.47a.49.49,0,0,0-.43-.89c-7,3.44-18.86,15-19.17,36.35a.49.49,0,0,0,.48.5A.5.5,0,0,0,463.89,320.41Z" style="fill:#fff"></path></g><g id="freepik--plants--inject-3"><path d="M57.05,311.65l-8.73,5c-.5-25.6-17.11-44.35-25.12-54.26-8.15-10.1,3.12-16.14,12.61-11.71S53,266.51,56.18,281.27C58.89,293.88,57.5,307.86,57.05,311.65Z" style="fill:#e0e0e0"></path><path d="M53.34,310.87h.11a.57.57,0,0,0,.55-.58c-.89-32.23-11.63-48.36-24-56.57a.56.56,0,0,0-.61.93c12.23,8.1,22.65,23.9,23.52,55.67A.58.58,0,0,0,53.34,310.87Z" style="fill:#fff"></path><path d="M10.18,282.45c.18,1.78,1.62,3.15,3,4.3s2.87,2.4,3.24,4.15c.76,3.54-3.43,6.8-2.53,10.3a5.59,5.59,0,0,0,2.95,3.29A35.69,35.69,0,0,0,20.32,306a15.71,15.71,0,0,0,1.74.42,8.07,8.07,0,0,1,4.75,2.13c1.94,2.1,1.69,5.32,2.38,8.09.82,3.32,2.79,5.26,7.31,6.84L52,314.7c3.85-3.93,5.21-10.64,1.66-15.21-2.13-2.74-6.12-3.08-8.13-5.82-1.8-2.46-.75-6-1.86-8.85s-4.05-3.82-6.82-4.3-5.72.66-8.43-.33-5.22-2.59-8-3.29a9.36,9.36,0,0,0-8.09,1.36A4.94,4.94,0,0,0,10.18,282.45Z" style="fill:#f0f0f0"></path><path d="M39,296.4a.48.48,0,0,0-.12-.16c-7.27-10.3-18.66-15.19-22.51-16.05a.4.4,0,1,0-.17.78c3.65.82,14.22,5.34,21.34,14.79a22.23,22.23,0,0,0-17.73,1.54.39.39,0,0,0-.12.55A.42.42,0,0,0,20,298a.39.39,0,0,0,.23-.07,21.55,21.55,0,0,1,18.11-1.09,33.81,33.81,0,0,1,6,20.79.4.4,0,0,0,.36.41h0a.4.4,0,0,0,.42-.39A34.58,34.58,0,0,0,39,296.4Z" style="fill:#fff"></path></g></g><g id="freepik--Floor--inject-3"><ellipse id="freepik--Shadow--inject-3" cx="250" cy="374.32" rx="243.8" ry="117.83" style="fill:#f5f5f5"></ellipse></g><g id="freepik--Shadows--inject-3"><ellipse id="freepik--shadow--inject-3" cx="251.93" cy="411.8" rx="56.97" ry="32.89" style="fill:#e0e0e0"></ellipse><ellipse id="freepik--shadow--inject-3" cx="323.79" cy="367.46" rx="56.97" ry="32.89" style="fill:#e0e0e0"></ellipse><ellipse id="freepik--shadow--inject-3" cx="422.65" cy="377.52" rx="56.97" ry="32.89" style="fill:#e0e0e0"></ellipse><ellipse id="freepik--shadow--inject-3" cx="174.56" cy="365.02" rx="58.24" ry="33.62" style="fill:#e0e0e0"></ellipse><ellipse id="freepik--shadow--inject-3" cx="79.39" cy="387.05" rx="60.12" ry="34.71" style="fill:#e0e0e0"></ellipse></g><g id="freepik--characters-silhouettes--inject-3"><g id="freepik--dark-character--inject-3"><path d="M463.61,222.62s9-19.83,11.92-27.08c3.06-7.68,1.53-10.61-.3-14.92s-12.73-33-14.83-36.88c-1.55-2.87-4.37-4.81-12.7-7.3,0,0-8.32-2.8-11.06-3.45l.19-8.05a20.37,20.37,0,0,1,2.36-3.22,3,3,0,0,0,3-.21c3-1.71,5.5-6,3.9-10a4.58,4.58,0,0,0-.73-1.19,25.55,25.55,0,0,0,1.14-7.86c0-3.09-.44-6.32-2.71-8a4,4,0,0,0,.47-.11,2.76,2.76,0,0,0,1.64-3.62l-2.58.89a2.91,2.91,0,0,0,.62-1.27,2.76,2.76,0,0,0-2.32-3.23l-.9,4.64c-1.33-3.76-6-6.16-9.45-7a26.73,26.73,0,0,0-11.67,0,22.88,22.88,0,0,0-8.07,3.8c-2,1.31-2.91,1.83-4.48,2.1a15.16,15.16,0,0,1-3.56-.05,1.55,1.55,0,0,0-.8.11,1.37,1.37,0,0,0-.53,1.35,5.17,5.17,0,0,0,2.64,4.15,3.79,3.79,0,0,0-2.51,3.61,5,5,0,0,0,2.18,4,6.54,6.54,0,0,0,1.56.79c-.22,5-.14,13.4.15,16.13.75,7.18,3,7.92,5.41,8.45a42,42,0,0,0,7,.74l-.09,3s-8.57-.3-11.31.22c-4.71.9-7.24,2.81-10.15,5.9-6,6.42-21.65,23.11-21.65,23.11s-3.07-18.93-3.43-21.95a21.36,21.36,0,0,1,.19-3.38c.59-5.41-1.26-10.67-3.37-15.56-.37-.84-.74-1.67-1.12-2.51a9.19,9.19,0,0,1-.5-1.22c-.12-.4-.24-.73-.77-.73a1.54,1.54,0,0,0-1,.47,4.48,4.48,0,0,0-1.2,3.4,21.59,21.59,0,0,0,.62,3.65c.19.93-.79.47-1.22.19-2.11-1.41-3.79-5.06-4.85-7.31a32.66,32.66,0,0,0-2-4.46,4.94,4.94,0,0,0-2.27-2c-.64-.25-1.32-.26-1.54.57A3.32,3.32,0,0,0,353,113a3.72,3.72,0,0,1-.26,3,8.28,8.28,0,0,0-1.18,1.85,25.84,25.84,0,0,0-.28,2.79,20.47,20.47,0,0,1-1,2.16,7,7,0,0,0,.18,2.87,22.8,22.8,0,0,0,1.76,5.64,42.66,42.66,0,0,0,4.7,7.66,12,12,0,0,1,2.39,4.36,25.41,25.41,0,0,1,.4,5c0,2.1,0,4.2.05,6.3.26,22.71,2.27,24.38,4.48,28.18,1.34,2.3,5.94,5.12,14-.54,5.65-4,15-12.27,21.07-17.88-.79,13.23-1.47,32-1.41,41.93l.13.09c-1.41,39.81.1,71.8.53,78.21s3.77,50.39,5.05,64.38a2.75,2.75,0,0,0-1.09,1.49,24.2,24.2,0,0,1-9.51,11,85.68,85.68,0,0,1-8.2,4.51l0,0-.16,0c-6,2.06-7.6,4.78-6.8,7.32a4.14,4.14,0,0,0,.87,3.36c1.57,1.48,6.26,4,12.61,3.4s9.84-2.47,12.44-4.53,6.27-5,9.15-5.51c2.68-.5,5.6-1.62,6.48-2.42s.91-4.52.91-4.52h0a36.9,36.9,0,0,0-.61-7.8c-.35-1.69-.54-4.68-.69-5.71-.13-.87-.82-.86-.82-.86.19-2.34,5.37-31.78,6.35-38.87a97.09,97.09,0,0,0,.15-21.33l.18-35.27s7,25,9.74,38.37c2.3,11.25,13.24,59.64,13.24,59.64-1.21.42-.55,4.46-.57,8.78A128.47,128.47,0,0,1,446,374.68a42.83,42.83,0,0,0-.4,6.19h0c0,4.27.56,7.14,2.11,9.74s4.73,3.57,8.05,3,7.66-2.26,8.84-5.88,1.16-6.16.68-10.15h0c0-.4-.05-.81-.09-1.24-.41-5.08-2.32-7.74-2.74-13.93-.4-5.77-.42-11.52-1.76-11.69,0,0,0,0,0,.05,0-3.78.78-25.45.88-42.34.06-10.76-4-23.5-4.29-26.49,0,0-.38-22.5-1.37-43,0,0,2.36-5.14,4.49-9.49C461.07,228.07,463.14,223.43,463.61,222.62ZM453.05,206.1v3c.19-.11.38-.22.56-.34.25-10.79-.29-25.89-.57-32.69l5.67,12.36Zm-12-112.6v0Z" style="fill:#455a64"></path><path d="M413.16,118.31,424.27,117s.53,4.4-4.94,5C413.43,122.74,413.16,118.31,413.16,118.31Z" style="fill:#fafafa"></path><path d="M423,107.21c-1.36.37-2,.68-1.72,1.55a2.37,2.37,0,0,0,3.3.93c1.6-.81,2.06-3.19,1.21-3.09A15.81,15.81,0,0,0,423,107.21Z" style="fill:#fafafa"></path><path d="M411.94,107.2c1.36.38,2,.69,1.72,1.55a2.36,2.36,0,0,1-3.3.94c-1.6-.8-2.06-3.19-1.21-3.09A17.41,17.41,0,0,1,411.94,107.2Z" style="fill:#fafafa"></path></g><g id="freepik--dark-character--inject-3"><path d="M366.4,354.79l-1.1-.46c-.73-.3-2.52-1.21-4.21-2.11a.4.4,0,0,0,.22-.33.4.4,0,0,0-.38-.43,7.11,7.11,0,0,0-1.22,0c-.73-.39-1.38-.75-1.8-1-.15-.08-.3-.18-.45-.27a.42.42,0,0,0,.14-.28.41.41,0,0,0-.39-.43,5.66,5.66,0,0,0-.92,0c-.77-.49-1.52-1-2.26-1.58a.44.44,0,0,0,.11-.25.42.42,0,0,0-.38-.44h-.63c-.63-.52-1.22-1.07-1.8-1.64a.41.41,0,0,0,.11-.25.4.4,0,0,0-.38-.43h-.41a18.07,18.07,0,0,1-3.24-4.68,4.22,4.22,0,0,0-.58-1,15,15,0,0,1-.19-3.14c0-1.21.15-5.85.28-11.66a2.29,2.29,0,0,0,.52-.49l.37-5.12-.34.17c.39-10.64,1.52-42.26,1.27-50.95-.43-15.18-1.91-70.78-1.91-70.78,5.87-7.44,17.72-22.53,19.35-25.23,2.93-4.85,2.4-6.66-.52-11.75-2.59-4.5-12.07-19.16-16-25.4-4.67-7.33-9.7-9.67-16.06-9.58L329.8,125l0,0c-.86-.11-1.79-.19-2.75-.24l-.14-3.18-.1-2.2c3.67.22,6-.11,7.79-1.16a11.13,11.13,0,0,0,4.4-5.77,29.15,29.15,0,0,0,1.4-6.66,59.7,59.7,0,0,0,.37-6A6.47,6.47,0,0,0,345,98.72a5.05,5.05,0,0,0,2.29-3.93c.3-2.5-1.95-4-1-5.73.24-.46.63-.82.91-1.25a4,4,0,0,0-.14-4.1,8.88,8.88,0,0,0-3.2-2.85c-2.48-1.47-5.28-1.82-7.78-3.06s-4.54-2.6-7.31-3.28c-7.62-1.87-17.88-1.55-23.39,4.89a13.85,13.85,0,0,0-2.67,5.06,9.78,9.78,0,0,0-5,3.53c-3,3.6-3.49,8.28-2.23,12.86a32.86,32.86,0,0,1,1.35,4.51c.38,3.12-3.16,6.27-4.59,9.08a20.1,20.1,0,0,0-.93,2.11,63.83,63.83,0,0,1-7.94-9.42c-.63-1.12-3.19-9.93-4.21-15.39a83.82,83.82,0,0,1-1.53-14.32c.15-3,2.1-4.63,3.79-6.81a16.69,16.69,0,0,0,2.27-4.57,20.28,20.28,0,0,1,1.29-2.8,1.53,1.53,0,0,0,.24-1.34,1.36,1.36,0,0,0-1.48-.59,4.21,4.21,0,0,0-2.43,1.56c-.64.75-1.14,1.61-1.76,2.37a2,2,0,0,1-.86.68c-2.1.63-.05-3.35.15-3.9,1-2.77,1.74-5.72,2.6-8.56a4.43,4.43,0,0,0,.29-1.76,1.55,1.55,0,0,0-1-1.37c-.82-.24-1.6.48-2.44.65a9.7,9.7,0,0,1-2.27-.17,6.66,6.66,0,0,0-3.13,1,16.33,16.33,0,0,0-3.82,2.38,11.56,11.56,0,0,0-3.18,6,37,37,0,0,0-.86,7.55c-.43,27.69-.15,31.87,2.26,43.39a12.12,12.12,0,0,0,2,4.65c2.45,3.37,5.6,7,11.53,13.74A121.59,121.59,0,0,1,291.7,143.9a27.64,27.64,0,0,1,1.44,2.51A48,48,0,0,1,298,161.77c.67,4.73,1.39,10.61,1.25,13-.72,4.45-3,6.65-6.29,15.51s-4.19,14.76-3.65,27.27c.53,12.25,2.36,54.21,2.36,54.21a109.68,109.68,0,0,0-2.6,23.62c-.14,9.5,1.1,42.64,1,48-1.51.07-1.13,5.51-1.58,10.84-.49,5.73-1.75,10.32-2.23,14a22,22,0,0,0,.33,9.44c.89,3.38,4.69,5.89,7.33,6.73s6,.13,7.31-2.24,1.81-5,1.9-9a69,69,0,0,0,.17-7.29,133.4,133.4,0,0,1-.72-13.58c.07-4,.93-7.66,0-8.08,1.74-8.19,10.49-49.14,13.11-66.59,2-13,4.84-38.24,4.84-38.24l5.9,31.32.05.27s-.47,12.75.22,20.23c.59,6.46,3.46,21.52,4.89,28.85l-.21-.07,1,4.82a3.55,3.55,0,0,0,.4.25c1.35,7.49,2,11.09,2.3,13.53a.92.92,0,0,0-.84.82c-.14.94-.21,3.64-.53,5.18a30.61,30.61,0,0,0-.36,7.05s0,3.37.87,4.09,3.52,1.71,6,2.14c2.66.46,6.05,3.06,8.47,4.91s5.66,3.5,11.52,4,10.18-1.85,11.62-3.21a3.7,3.7,0,0,0,.78-3C373.25,358.37,371.94,356.61,366.4,354.79ZM335,338.74l.06.69A4.92,4.92,0,0,1,335,338.74Zm9.92-179.11,5.35,8.61-4.49,8Z" style="fill:#455a64"></path><path d="M333.11,108.16l-9.29-1.5s-.61,3.68,4,4.42C332.71,111.87,333.11,108.16,333.11,108.16Z" style="fill:#fafafa"></path><path d="M324.5,97.05c1.31.39,1.91.54,1.65,1.38a2.28,2.28,0,0,1-3.19.9c-1.56-.77-2-3.13-1.18-3A26.26,26.26,0,0,1,324.5,97.05Z" style="fill:#fafafa"></path><path d="M335.29,97.17c-1.41.48-2,.52-1.69,1.36a2.28,2.28,0,0,0,3.19.9c1.55-.77,1.95-3.4,1.15-3.17S336.52,96.74,335.29,97.17Z" style="fill:#fafafa"></path></g><g id="freepik--dark-character--inject-3"><path d="M231.15,167.32c-2.59-6.24-11.05-22.12-14-28.14-3.75-7.61-7.29-10.55-13.34-12.52s-13.61-4.25-13.61-4.25l0-7.92c1-.29,1.57-1.81,1.87-2.71.4-1.18.57-2.06,1.06-3.25a3.71,3.71,0,0,0,2.66-.62c2.47-1.63,5.3-6.63,3.34-10.32a3.1,3.1,0,0,0-2.43-1.85c1-5,1.66-9.46-.13-11.9a6.24,6.24,0,0,0-4.13-2.63h0a2.43,2.43,0,0,0,.38-.34,1.62,1.62,0,0,0,.31-1,3.11,3.11,0,0,0-1.24-2.44,3,3,0,0,0-2.76-.36,4.74,4.74,0,0,0-.81-3.36,5.8,5.8,0,0,0-3.95-2.34c-1.06,0-2,.57-3.08.67a3.62,3.62,0,0,0-2-3.33,5.58,5.58,0,0,0-2.43-.47,5.94,5.94,0,0,0-1.83.24,7.61,7.61,0,0,0-3.33,2.76,3.8,3.8,0,0,0-2.6-1.15,7.4,7.4,0,0,0-3.07.21,4.17,4.17,0,0,0-2.4,1.78c-.61,1-.85,2-2.25,2.14-.6.08-1.22,0-1.81.17a3.09,3.09,0,0,0-2.29,2.15v.05a13.28,13.28,0,0,1-.36,2.11,2.18,2.18,0,0,1-1.42,1.23,2.31,2.31,0,0,1-1.88-.33,1,1,0,0,0,.27.75,4.22,4.22,0,0,0,2.69,1.48,4.15,4.15,0,0,0,2-.25A9.79,9.79,0,0,0,156,88.8a9.1,9.1,0,0,0,1.48,5.2c0,2-.17,11,.14,14.12.34,3.53,0,6.58,3,8.68,2.23,1.61,6.33,2.55,11.4,2.27l0,3.5a31.58,31.58,0,0,0-11,3.77,23.19,23.19,0,0,0-10.08,17c-1,8.86-1,32.91-1,48.26,0,0-.9,75.06-.45,82,.4,6.06,3.12,64.09,2.95,64.49-2.19,5.16-5.81,7.83-10.75,10.83-1.83,1.11-6.7,3.93-11.5,6.44s-6.43,5-5.25,8.17a2.31,2.31,0,0,0,.94,2.49c1.87,1.41,7.32,3.67,14.44,2.66s10.94-3.13,13.75-5.38,6.75-5.44,10-6.16c3-.68,6.22-2,7.16-2.87s.73-4.64.73-4.64h0a31,31,0,0,0-1-7.84,15.78,15.78,0,0,1-.52-4.79c0-.89-.18-1.67-1-1.64.1-1.76,5.22-35.27,6-41.86a82.37,82.37,0,0,0,0-17.95l3.1-32.36s2,25.39,4.22,39.05c1.54,9.57,9.27,51.88,10.75,61.08-1.44.1-.94,4.81-.88,9.1a110.75,110.75,0,0,1-.47,14.65,42.22,42.22,0,0,0-.29,6.31h0c.09,4.34.48,7.93,2.17,10.54s4.64,3.31,8.13,2.69,7.53-2.55,9-6.15c1.89-4.64,1.54-8.79.79-12.63s-2.13-7.24-2.71-13.52c-.53-5.74-.44-11.57-2-11.81.87-14.25,3.94-35.37,3.18-49.81-.6-11.22-2.73-16.75-3.1-19.51,0,0-.55-23.32-1.4-46.32,3.57-3.73,4.61-8.14,7.56-12.55l.53-.81h0l4.35-6.37a11.37,11.37,0,0,0,5-5.27c1.4-3.5,7.05-14.74,8.78-20.68C233.23,176.91,233.74,173.56,231.15,167.32Zm-25,25.14-.2.5-1-15.47c.34-3.79.4-7.45.59-11.7l6.32,9.84A174.17,174.17,0,0,1,206.19,192.46Z" style="fill:#455a64"></path><path d="M165.9,105.5l10.68-1.72s.7,4.23-4.56,5.07C166.36,109.76,165.9,105.5,165.9,105.5Z" style="fill:#fafafa"></path><path d="M175.49,94.3c-1.3.39-1.9.54-1.64,1.38a2.29,2.29,0,0,0,3.19.91c1.56-.78,2-3.14,1.18-3A27,27,0,0,0,175.49,94.3Z" style="fill:#fafafa"></path><path d="M163.45,94.42c1.41.48,2,.52,1.68,1.36a2.27,2.27,0,0,1-3.19.9c-1.55-.77-1.94-3.4-1.14-3.17S162.22,94,163.45,94.42Z" style="fill:#fafafa"></path></g><g id="freepik--dark-character--inject-3"><path d="M160.53,130.88c.08-.82-.53-1-1.19-1a4.83,4.83,0,0,0-2.71,1,31.82,31.82,0,0,0-3.36,3.31c-1.72,1.66-4.49,4.36-6.87,4.9-.48.11-1.52.19-1-.58a20.76,20.76,0,0,0,1.82-3.08,4.3,4.3,0,0,0,.09-3.46,1.5,1.5,0,0,0-.73-.76c-.47-.19-.69.07-.94.39a10.89,10.89,0,0,1-.88.92l-1.86,1.87c-3.58,3.67-7.05,7.76-8.37,12.83-.2.74-1,6.34-1.68,9.56-.46,2.89-3.7,18.93-3.7,18.93s-10-11-16.5-18.23c-4.09-4.54-7.46-9.22-11.83-10.47a15,15,0,0,0-6.07-.62l-5.49.39v-5c4.12.38,6.15,0,8.25-1.1,1.89-1,5.66-5.61,6.7-15.29a6.19,6.19,0,0,0,2.21-2.63,33,33,0,0,0,1.26-4.79,1.56,1.56,0,0,1,.34-.64,3.61,3.61,0,0,0,.85-1.78c.08-.76-.39-1.42-.84-1.46l-.83-.05c-1,0-2.07-.06-3.16,0a19.54,19.54,0,0,0-.5-2.14.31.31,0,0,1,0-.08,27,27,0,0,0-.15-4,8.73,8.73,0,0,1,4.73,3A17.19,17.19,0,0,0,107,104a9.07,9.07,0,0,0-4.45-4.9,8.23,8.23,0,0,1,4.83,1.46c-3.12-4.29-8.2-6.88-13.43-7.77a38.77,38.77,0,0,0-19.78,2.33C64,99.11,57.49,110,59.9,120.83c1.77,8,8.7,12,11.24,16.92l.25,10.13c-1.4.21-4.35.65-8.42,1.34s-8.37.48-13.79,8a229.47,229.47,0,0,0-16.24,26c-2.93,5.51-4.35,7.39-.87,13.92a183.39,183.39,0,0,0,14.42,21.4,50,50,0,0,1,3.58,5.31,204.15,204.15,0,0,0-.91,23.1,10.53,10.53,0,0,0,1.67,1.45c0,1,.08,2,.13,3.1.64,13.32,2.73,43.25,2.73,43.25S46.06,302,44.93,315c-.78,9.15-1.21,28.4-3.4,40-1.3-.08-2.77,6-4.47,12l0,.13a63.65,63.65,0,0,1-2.12,6.24c-.63,1.57-1.06,2.59-2,4.66a31.14,31.14,0,0,0-2.43,7.07,24,24,0,0,0-.28,7.37c.46,4.12,4,7.37,7,8.66a7.76,7.76,0,0,0,8.51-1.58c2.58-2.36,3.79-8.89,4-10.42s.61-4,.84-6a131.53,131.53,0,0,1,2.24-14.18c.5-1.37,1-2.65,1.7-4.34,1-2.46,1.27-4.7.76-5.48a.36.36,0,0,0-.07-.1c5.32-12.22,15.49-39,19.49-49.6,3.07-8.07,8.75-21.46,11.7-39.26l4.64,29.57A29.56,29.56,0,0,0,88.21,316c1,10.75,3.74,41.58,3.74,41.58a1.26,1.26,0,0,0-1.23.82c-.2.58-.36,2.19-.45,2.62a27.12,27.12,0,0,1-1,3.29,46.77,46.77,0,0,0-1.51,10.11c-.07.63-.4,3.89.35,4.76s5.06,2.52,7.86,3.41c3,1,5.27,3.57,7.78,6.1s4.27,4.05,11,5.56,12.06-.49,14-1.84c1.24-.89,1.46-2.9,1.37-3.82,1.29-2.51.85-5.16-5.62-8.92-.33-.19-.84-.52-1.46-.94-1.87-1.26-4.63-3.26-5.88-4.22a33.74,33.74,0,0,1-5-4.61,20.58,20.58,0,0,1-2.77-3.79,10.28,10.28,0,0,1-.74-2.44,23.8,23.8,0,0,1-.48-2.63,1.81,1.81,0,0,0-.57-1.34,1.56,1.56,0,0,0-.88-.18c2.43-13.66,8.57-47.75,9.8-56.68,2.14-15.54,2.88-38.16,2.19-57.06a8.51,8.51,0,0,0,1.26-1.27s-.6-26.76-10.28-50.89c1-.88.84-2.06.67-3.87a53.75,53.75,0,0,1-.06-6.49,9,9,0,0,0,1.14-.68A148,148,0,0,0,125.1,195c7.56,5.74,11.65,3.48,13.81,1,2.77-3.21,4.32-7.6,5.11-25,.09-2,.17-4,.28-6.06a44,44,0,0,1,.94-7.72c.65-2.55,2.68-3.27,4-4.12a23.46,23.46,0,0,0,5.06-4.09,21.69,21.69,0,0,0,3.52-4.46,6.78,6.78,0,0,0,1.15-2.52,19.11,19.11,0,0,1-.19-2.29c.13-.9.68-1.7.72-2.6a8.37,8.37,0,0,0-.43-2.08,3.58,3.58,0,0,1,.81-2.81A3.27,3.27,0,0,0,160.53,130.88Zm-55.89-15.52.15,0h0l.1,0,.14,0,.18,0,.29.1,0,0a1.86,1.86,0,0,1,.65.38c.56.52.12,3-.21,4.26a7.13,7.13,0,0,1-1.71,3.37c0-.58.08-1.17.1-1.79a42.1,42.1,0,0,0-.21-6.54C104.36,115.32,104.51,115.33,104.64,115.36ZM60.88,174.7a51.35,51.35,0,0,1,2,11c.3,3.08-.35,5.25,1.37,6.64h0s-1.76,3.19-4.83,7.71a62.16,62.16,0,0,0-5,8.48,143.6,143.6,0,0,1-6.78-17.13C50.32,187.78,57.33,178.81,60.88,174.7ZM41.25,356.38c.07-.33.13-.65.19-.94C41.38,355.76,41.32,356.07,41.25,356.38Z" style="fill:#455a64"></path><path d="M98.59,129.24l-10.36-.55s-.24,4.11,4.87,4.38C98.59,133.35,98.59,129.24,98.59,129.24Z" style="fill:#fafafa"></path><path d="M88.21,118.34c1.27.3,1.87.57,1.64,1.38a2.2,2.2,0,0,1-3,1c-1.51-.7-2-2.89-1.22-2.83A14.92,14.92,0,0,1,88.21,118.34Z" style="fill:#fafafa"></path><path d="M98.61,118c-1.25.39-1.83.69-1.55,1.49a2.2,2.2,0,0,0,3.09.76c1.46-.79,1.82-3,1-2.89A15.74,15.74,0,0,0,98.61,118Z" style="fill:#fafafa"></path></g></g><g id="freepik--speech-bubbles--inject-3"><path id="freepik--speech-bubble--inject-3" d="M397.69,91.21,386.81,81.8s-21.41.11-27.26-5.65c-6.86-6.77-1.4-21.31,6.41-27.11s32.4-6.47,40.66,0,10.84,19.5,3.95,26.91c-3.95,4.24-13.48,5.36-13.48,5.36Z" style="fill:#D8B9FF"></path><path id="freepik--speech-bubble--inject-3" d="M180.9,64.38l-.26-9.69s16.15.5,13.4-19.58c-1.33-9.78-8.87-19.82-37.95-16C121,23.65,125.16,41.33,128.78,47.52,132.57,54,148,57.39,173.3,56Z" style="fill:#D8B9FF"></path><path id="freepik--speech-bubble--inject-3" d="M76.31,89,85,80.78a83.63,83.63,0,0,0,19.52.86c17.42-1,27.24-8.61,24.65-19-3.06-12.19-14.2-16-35-15.16-26,1-35.32,17.5-17.2,30.74Z" style="fill:#D8B9FF"></path><path id="freepik--speech-bubble--inject-3" d="M325,68.6l1.42-11.21s17.34.39,22.55-3.13c8.3-5.6,8.85-20.19,2-28.79-6.51-8.2-39.22-9.64-47.94-3.12-8.44,6.29-11.49,19.86-7.17,27,4.43,7.29,21.36,7.43,21.36,7.43Z" style="fill:#D8B9FF"></path></g><g id="freepik--Character--inject-3"><g id="freepik--character--inject-3"><g id="freepik--Bottom--inject-3"><path d="M275.56,384.54c0-5,2.19-45.83,2.19-45.83l-20.17,11.77c2.43,22.49,4.66,33.13,4.87,37h0a4.17,4.17,0,0,1,.11.8c-.07,4.44,5.14,6.95,9.18,10a75.49,75.49,0,0,0,10.95,7.14c2.95,1.5,9,1.76,9.78-.05-4.91-3.74-10.61-7.83-14.49-12.07C276.13,391.28,275.54,389.21,275.56,384.54Z" style="fill:#ffa8a7"></path><path d="M300.89,410.33c.25,0,.58,2.7-.83,3.81-1.64,1.28-6.39,3.34-12.6,2.44s-9.54-2.81-12-4.85-5.88-4.92-8.68-5.57c-2.61-.61-5.42-1.8-6.24-2.59s-.64-4.2-.64-4.2Z" style="fill:#263238"></path><path d="M262.34,386.25a.78.78,0,0,0-.76.77,35.91,35.91,0,0,1-.79,5.23,26.43,26.43,0,0,0-.78,8.3c.3,1.76,4.54,3.07,7.24,4.12a34.91,34.91,0,0,1,8.72,5.5,26.56,26.56,0,0,0,13,4.95c6.19.22,10.23-1.29,11.51-3.38,1.59-2.59.42-4.14-6.63-7.43a65.15,65.15,0,0,1-7.28-4.94c-4.94-4.07-8.68-7.63-9.57-12.67-.1-.58-1.07-1.14-4.89-.4-1,.19-4.74,1.19-4.75,2.35a19.28,19.28,0,0,0,.41,2c.05.24.24,1.28,0,1.42s-.65-.67-.78-.87a15.39,15.39,0,0,0-1.43-2.29c-.33-.41-2.7-.64-3.17-1.4C262.45,387.49,262.43,386.87,262.34,386.25Z" style="fill:#37474f"></path><path d="M293.89,404.31c-9,.39-11.88,5.91-11.22,9.39a22.1,22.1,0,0,0,6.34,1.42c6.19.22,10.49-1.28,11.77-3.38C302.28,409.3,300.2,406.74,293.89,404.31Z" style="fill:#fafafa"></path><path d="M282.07,404.15a.43.43,0,0,1-.27-.11.41.41,0,0,1,0-.59,10.82,10.82,0,0,1,8.33-2.37.42.42,0,1,1-.16.82,10,10,0,0,0-7.54,2.13A.41.41,0,0,1,282.07,404.15Z" style="fill:#f0f0f0"></path><path d="M278.31,401.33a.45.45,0,0,1-.27-.12.4.4,0,0,1,0-.59,10.76,10.76,0,0,1,8.31-2.42.44.44,0,0,1,.36.49.42.42,0,0,1-.51.33,10,10,0,0,0-7.52,2.18A.48.48,0,0,1,278.31,401.33Z" style="fill:#f0f0f0"></path><path d="M275.15,398.74a.45.45,0,0,1-.27-.1.4.4,0,0,1,0-.59,10.77,10.77,0,0,1,8.24-2.65.43.43,0,0,1,.37.48.44.44,0,0,1-.5.35,10,10,0,0,0-7.46,2.38A.45.45,0,0,1,275.15,398.74Z" style="fill:#f0f0f0"></path><path d="M271.6,395.68a.5.5,0,0,1-.26-.11.41.41,0,0,1,0-.59c1.84-2,5.8-3.08,9-2.54a.41.41,0,0,1,.36.48.42.42,0,0,1-.5.34c-2.91-.48-6.59.54-8.22,2.28A.5.5,0,0,1,271.6,395.68Z" style="fill:#f0f0f0"></path><path d="M219.76,350.51c-.72,13.28,1.66,28.15,1.05,40.62-.11,2.35-1.47,18.2-.92,23.08.83,7.34,9.93,7,10.75,2.67s2.56-23,2.74-24.93c.54-8,7.32-35.24,7.32-35.24Z" style="fill:#ffa8a7"></path><path d="M233.81,420.13c-.15,4.27-.76,7.11-2.28,9.65s-4.5,3.41-7.55,2.77-7-2.5-8-6.15-.87-6.18-.29-10.15Z" style="fill:#263238"></path><path d="M220.88,389.61c-1.25.13-1.46,5.86-2,11.61-.6,6.16-2.46,8.75-3,13.8-.63,5.78-.24,8.34,2,11.76s9.8,6.62,13.36,1.54c2.9-4.15,2.9-8.65,2.46-14.39a121.29,121.29,0,0,1,0-14.56c.13-4.32,1-8.69-.09-9.14-.07.64-.13,1.44-.2,2.07,0,.48-.11,2.81-.81,2.85a8,8,0,0,1-.06-1.62,1.86,1.86,0,0,0-.38-1.38,2.45,2.45,0,0,0-1.41-.55c-1.23-.2-3.84-.23-5.1-.3-.62,0-1.25-.05-1.87,0a5.28,5.28,0,0,0-1.58.26,1.08,1.08,0,0,0-.66.61,2,2,0,0,0,0,.65,4.34,4.34,0,0,1-.12,1.19c0,.17-.16.38-.34.34a.33.33,0,0,1-.21-.34c0-.69.05-1.2.07-2,0-.37,0-.88,0-1.26S220.86,390,220.88,389.61Z" style="fill:#37474f"></path><path d="M215.6,418.37c-.12,3.57.16,6,1.89,8.69,2.22,3.42,10.41,6.62,14,1.53,1.77-2.52,2.18-5.47,2.35-8.46C231.48,416.35,219,415,215.6,418.37Z" style="fill:#fafafa"></path><path d="M230.42,414a.28.28,0,0,1-.15,0,19.17,19.17,0,0,0-10.81-.76.48.48,0,0,1-.57-.31.45.45,0,0,1,.34-.54,19.74,19.74,0,0,1,11.42.81.43.43,0,0,1,.23.58A.48.48,0,0,1,230.42,414Z" style="fill:#f0f0f0"></path><path d="M219.64,408.87a.47.47,0,0,1-.4-.29.44.44,0,0,1,.28-.57c5.55-2,11.16.6,11.4.71a.43.43,0,0,1,.21.59.47.47,0,0,1-.62.2s-5.51-2.5-10.67-.67A.46.46,0,0,1,219.64,408.87Z" style="fill:#f0f0f0"></path><path d="M219.85,404.82a.47.47,0,0,1-.4-.28.43.43,0,0,1,.27-.57,15,15,0,0,1,11.63.66.44.44,0,0,1,.17.61.48.48,0,0,1-.63.16,14.25,14.25,0,0,0-10.84-.61A.64.64,0,0,1,219.85,404.82Z" style="fill:#f0f0f0"></path><path d="M220.11,400.27a.49.49,0,0,1-.4-.28.43.43,0,0,1,.26-.57c5.71-2.22,11.47.66,11.71.79a.42.42,0,0,1,.19.59.47.47,0,0,1-.63.18c-.05,0-5.62-2.81-10.93-.75A.45.45,0,0,1,220.11,400.27Z" style="fill:#ebebeb"></path><path d="M232.26,224.53a9.15,9.15,0,0,1-1.83,4.41c-5,7.09-8.93,13.91-9.33,26.77-1,31.82.58,64.85.58,64.85-.21,2.81-1.41,6-2.48,20.53-.94,12.72,1.24,33.1,1.24,33.1s8.36,4.28,16.24,1.23c3.14-10.34,8-36.92,10.65-50.94,2.47-13.27,4.6-32.33,4.6-32.33l2.69,28.41s-1.22,6.83.15,18.15c1,8.51,5.14,33.26,5.14,33.26s9.51,4.56,16.28-.22c0,0,3.23-44.41,3.3-54.72.14-19.17,1.63-62.78-4.23-87.26a54.21,54.21,0,0,1-.37-5.69C268.26,229.65,241.17,230.5,232.26,224.53Z" style="fill:#37474f"></path><path d="M242.82,233.54a.36.36,0,0,0-.44.26c-.37,1.48-.65,2.81-.92,4.1-1,4.65-1.69,8-5.18,11.62a12.15,12.15,0,0,1-8.79,3.51c1.51-9.52,4.7-17.12,9.79-23.4a.34.34,0,0,0-.07-.49.39.39,0,0,0-.52.06c-5.23,6.45-8.49,14.27-10,24.08,0,0,0,0,0,0s0,0,0,0a89.24,89.24,0,0,0-1,11.83c-.32,17.89-.27,37.58-.53,44.69-.15,3.8-.17,6-.31,11.44-.09,3.72-1.37,13.5-1.87,20.16-.91,12.22-.51,33.48-.5,33.68a.36.36,0,0,0,.37.33h0a.36.36,0,0,0,.35-.37c0-.2-.13-21.37.5-33.53.35-6.77,1.71-16.4,1.86-20.1.23-6.1.17-7.72.32-11.59.27-7.11.21-26.8.54-44.7a87.36,87.36,0,0,1,.9-11.45h.39a12.67,12.67,0,0,0,9-3.75c3.64-3.75,4.36-7.19,5.37-12,.27-1.29.55-2.61.91-4.08A.35.35,0,0,0,242.82,233.54Z" style="fill:#455a64"></path><path d="M220,370.57c2.7,2.55,13.68,3.87,17.81,1.62L236,378.54a15.76,15.76,0,0,1-8.1,1.11c-6.05-.54-7.47-2.45-7.47-2.45Z" style="fill:#455a64"></path><path d="M259.28,368.71c3.58,1.2,13.52,1.21,17.39-1.82l-.44,6s-1.45,1.83-7.71,2.33c-6,.49-8.44-1-8.44-1Z" style="fill:#455a64"></path><path d="M251.93,292.15l3.92-31.42a19.63,19.63,0,0,0,15.74-7.65s.26,7.85-12.55,11.46l-4.69,29,.27,27.05Z" style="fill:#263238"></path></g><g id="freepik--Top--inject-3"><g id="freepik--Arm--inject-3"><path d="M260.82,172.75c10.09,1.78,12,3.68,16.58,11,4.77,7.66,12,30.42,13.47,35.35s1,10.63-7.73,11.15l-9.9-9.43-9.95-29.51Z" style="fill:#D8B9FF"></path><path d="M260.82,172.75c10.09,1.78,12,3.68,16.58,11,4.77,7.66,12,30.42,13.47,35.35s1,10.63-7.73,11.15l-9.9-9.43-9.95-29.51Z" style="opacity:0.25"></path><path d="M274,214.15c3.84-1.09,9.65-.79,12.45,1.71-1.4-2.16-5.68-4.62-12.72-3.26Z" style="opacity:0.25"></path></g><path d="M223.18,241.5s-1,3.49-1.47,6.13c3.3,3.08,14.33,8.5,34.35,6.08s22.21-8.5,22.21-8.5l-.77-7.44Z" style="fill:#D8B9FF"></path><path d="M223.18,241.5s-1,3.49-1.47,6.13c3.3,3.08,14.33,8.5,34.35,6.08s22.21-8.5,22.21-8.5l-.77-7.44Z" style="opacity:0.25"></path><path d="M245.85,170.39l-19.45,5.73c-2.43.84-6.25,5.16-3.05,19a113.61,113.61,0,0,1,2.52,19.14c.29,4.7-1.17,11.78-3.79,25.08a4.12,4.12,0,0,0,2,4.39c4.71,2.64,15.93,7.33,33.6,5.32,12.29-1.39,17.5-5.23,19.6-7.61a5.15,5.15,0,0,0,1.27-3.56c-.06-1.76-.12-3.42-.17-5-.25-6.88-4.23-14.73-4.4-18.8l.18-.32c2.72-4.67,4.5-12.8,2.95-18.49-1.23-4.54-2.76-6.78-8.22-13.74-5.19-6.62-8.09-8.85-8.09-8.85Z" style="fill:#D8B9FF"></path><path d="M239.18,165.12c0-1.3-4.67-5.12-7.2-8.15-6.17-7.39-5.52-18.41.85-22.13.13-5.66,4-13.14,16.25-13.65,12.46-.53,23.24,8.26,21.09,17.21Z" style="fill:#263238"></path><path d="M269.37,134.33c1.23,2.39,2.28,6.33,1.74,18.92-.44,10.46-4,13.41-6.55,14.58-1.63.74-5.49.78-8.19.15l0,4.89c4.48,3.75-11.35,5-17,.06l-.29-16c-.63,1.08-3.69,1.89-6.1-1.4s-2.44-7.85.29-9.34,5.14-.38,6.64,2.29c2.84,1.13,5.34-1.56,5-12.56C251.16,132.41,262.1,130.59,269.37,134.33Z" style="fill:#ffa8a7"></path><path d="M274.63,137.18c-1.08-4.24-4.19-8.25-7.82-9.35-4.64-3.24-11.13-1.51-15.78.85a25.62,25.62,0,0,0-9.44,8.22c-2.58,3.76-2.52,8.85-1.33,13.18.69,2.51,1.83,5.19.87,7.61a5,5,0,0,0,3-1.75c.88-1.06.71-2.68.7-4.21a8.91,8.91,0,0,1,1.07-4.73c1.53-2.49,3.9-4,5.61-6.25a10.57,10.57,0,0,0,2.24-5.47l0,0a29.8,29.8,0,0,0,3.64,5.23,11.31,11.31,0,0,0,5.29,3.42c-1.44-1.77-3.33-4.22-3-7.48a8.38,8.38,0,0,0,3.09,2.64c1.35.76,4.06,1.36,5.15,1.86,4.5,2.07,5.12,5,5,8.94C274.93,147.08,276.24,143.58,274.63,137.18Z" style="fill:#263238"></path><path d="M255.17,159.36c0,.33.25.48.54.48a4.32,4.32,0,0,1,1.3.08,3.2,3.2,0,0,1,1.14.6.48.48,0,0,0,.8-.28,1.92,1.92,0,0,0-.14-.92,1.84,1.84,0,0,0-1.38-1,2.78,2.78,0,0,0-1.77.35A1.08,1.08,0,0,0,255.17,159.36Z" style="fill:#b16668"></path><polygon points="259.06 145.17 259.21 156.14 264.56 154.67 259.06 145.17" style="fill:#f28f8f"></polygon><path d="M256.37,168c-8.5-2.25-14-5.29-15-8.84,0,0,.12,3.6,2.61,5.61,3.5,2.82,12.38,5.24,12.38,5.24Z" style="fill:#f28f8f"></path><path d="M252.78,150.07a1.83,1.83,0,0,0,2.45.72,1.71,1.71,0,0,0,.73-2.37c-.47-.86-1.24-1-2.08-.15S252.31,149.21,252.78,150.07Z" style="fill:#263238"></path><path d="M268.08,149.27a1.85,1.85,0,0,1-2.29,1.14,1.73,1.73,0,0,1-1.13-2.22,1.25,1.25,0,0,1,2.08-.51C267.53,148.36,268.4,148.35,268.08,149.27Z" style="fill:#263238"></path><path d="M264.45,141.24l4,1.64a2.07,2.07,0,0,1-2.74,1.21A2.25,2.25,0,0,1,264.45,141.24Z" style="fill:#263238"></path><path d="M254.35,141.41l-3.78,2.15a2.1,2.1,0,0,0,2.91.87A2.29,2.29,0,0,0,254.35,141.41Z" style="fill:#263238"></path><path d="M266.7,144.77c-2.35.08-4.52.47-4.94,2.61a2.45,2.45,0,0,0-2.65.13,2.7,2.7,0,0,0-1.58-1.88,8.41,8.41,0,0,0-3.53-.45,8.21,8.21,0,0,0-3.49.68,2.71,2.71,0,0,0-1.19,1.18l-11.46-.87a5.43,5.43,0,0,1,1,.88l10.2.79a3.78,3.78,0,0,0-.07.91,5.13,5.13,0,0,0,5.12,4.95h.17a5.12,5.12,0,0,0,5-5.14,1.56,1.56,0,0,1,1.44-.68,1.26,1.26,0,0,1,1,.56,5.12,5.12,0,0,0,5.11,4.85H267a5.13,5.13,0,0,0,4.95-5.29C271.83,145,269.36,144.68,266.7,144.77Zm-9.45,6.75a4.27,4.27,0,0,1-3,1.36,4.34,4.34,0,0,1-4.44-4.16,2.09,2.09,0,0,1,1.08-2.14A7.87,7.87,0,0,1,254,146h.66a6.23,6.23,0,0,1,2.5.39,2.07,2.07,0,0,1,1.22,2.06A4.24,4.24,0,0,1,257.25,151.52Zm9.7.95a4.32,4.32,0,0,1-4.44-4.16c-.06-1.91,1-2.62,4.22-2.72h.61c2.71,0,3.71.68,3.77,2.45A4.31,4.31,0,0,1,267,152.47Z" style="fill:#37474f"></path><g id="freepik--Arms--inject-3"><path d="M246.17,181.17c-1,0-1.73.29-1.91.86-.3.92.79,1.43.79,1.43s-2-1-2.41.18.8,1.78.8,1.78-1.35-.68-1.64,0c-.38.91.63,1.94,2.33,2.84a10,10,0,0,0,2.38,2.1,6.93,6.93,0,0,0,.82,2.19,11.82,11.82,0,0,0-.56,6.71,13.58,13.58,0,0,0,1.69,3.29l7.89-13.41-4.73-7.33Z" style="fill:#f28f8f"></path><path d="M248.46,189.35a4.7,4.7,0,0,1-1.61-1.73l.06,0a5.08,5.08,0,0,1-1.95-1.38l.07,0a2.81,2.81,0,0,1-1.59-.91,3.2,3.2,0,0,0,1.61.69h0l0,0a6.06,6.06,0,0,0,1.88,1.31l0,0,0,0A6.47,6.47,0,0,0,248.46,189.35Z" style="fill:#b16668"></path><path d="M230.5,167c-4.92-3.61-3.46-9-.7-13.78,1.44,1.55,3.86,4,5,5.37s1.11,1.67,2,2.87c4.72,2.55,6.11,6.23,5.64,11.51,4.09,2.37,5.87,5.29,4.95,9.87,3.29,3,3.4,5.93,1.72,10.09,2.87,3.66,2.44,6.81-.83,10.07,2,2.21,1.25,4.68,0,6.76s-.83,2.71.25,4.38a7.37,7.37,0,0,1-5-6.14c-.19-2.58.62-3.55,2-5.33-2.53-2.52-3.33-5.29-1.56-8.54-2.42-2.41-3.66-4.63-3.32-8.1-3.36-1.93-5.68-4.26-5.73-8.19a9.38,9.38,0,0,1-4.6-5.12,8.44,8.44,0,0,1,.17-5.72Z" style="fill:#263238"></path><path d="M257.09,206.66a98.94,98.94,0,0,1,2.72-9.76c1.26-3.32,1.74-4.4,1-6.18a45.7,45.7,0,0,0-2.92-5.49,29.28,29.28,0,0,0-3.29-3.74c-.75-.6-3.82-1.9-5.24-2.76s-2.08-1.21-2.43-.43.42,1.79,1.17,2.63a4.85,4.85,0,0,0,1.6,1.18s1.77,1.75,2.14,1.72l1.55,2.5a17.69,17.69,0,0,0,1.21,2.66l-.09,0a.86.86,0,0,1-.8-.15,8.62,8.62,0,0,1-1.78-2.1c-.67-1.2-1-1.67-1.65-2.93a18,18,0,0,0-1.76-3.23c-.6-.67-1.72-1-2.36.56a5,5,0,0,0,.29,4.12c.53,1.23,1.49,3,1.71,3.82a6.53,6.53,0,0,1,0,3.31c-.23,1.25-1.19,2.72-1,5.91s.88,3.24-.15,6.68Z" style="fill:#ffa8a7"></path><path d="M254.61,189a9.18,9.18,0,0,1,3.34-.37,5,5,0,0,0-3.55,0Z" style="fill:#f28f8f"></path><path d="M226.4,176.12c-10.56,2-11.58,12.14-9.84,20.36,1.65,7.8,5.78,22.59,8.27,30,2.1,6.21,5.86,12,10.31,12.53s9-3.91,8.87-10.79-7.71-34.67-7.71-34.67S233.31,179.94,226.4,176.12Z" style="fill:#D8B9FF"></path><path d="M226.4,176.12c-10.56,2-11.58,12.14-9.84,20.36,1.65,7.8,5.78,22.59,8.27,30,2.1,6.21,5.86,12,10.31,12.53s9-3.91,8.87-10.79-7.71-34.67-7.71-34.67S233.31,179.94,226.4,176.12Z" style="opacity:0.25"></path><path d="M237.87,217.69c-1.4-1.53-4.41-3-6.39-3.65a18,18,0,0,1-5.08-3.32c-1.75,0-1.49,2.65-.59,4s2.88,2.34,1.31,2.61-5.12-1-5.12-1l-.1.62c1,3.64,2.09,7,2.93,9.49a36.51,36.51,0,0,0,1.4,3.53c2.94,1.54,4.13,1.81,5.92,1.51l8.14-10.74A29.09,29.09,0,0,0,237.87,217.69Z" style="opacity:0.25"></path><path d="M247.06,205c-1.6,4.44-11.43,15.14-13.24,19.07-3,6.64-1.53,14.53,1.32,14.9,2.21.3,8.58.41,13.9-10.43a124.83,124.83,0,0,0,8-21.89Z" style="fill:#ffa8a7"></path><path d="M232.15,231.49a124,124,0,0,1,15.31-.08c.53-.86,1.06-1.81,1.58-2.86.27-.56.53-1.11.79-1.67l-16.91-.38A19.11,19.11,0,0,0,232.15,231.49Z" style="fill:#f28f8f"></path><path d="M283.16,219c-3.54-3.81-6.51-5-9.94-4.81-4.72.28-12.9,3-27.38,4a14,14,0,0,1-4.56-.16c-2.6-.59-3.21-2.58-7.51-4.17a23.12,23.12,0,0,1-6.61-3.37c-.9-.66-1.87.17-1.61,1.61a6,6,0,0,0,2.35,3.6c1.56,1.31,2.38,1.78,1.36,2a8.82,8.82,0,0,1-5.08-.63,12.18,12.18,0,0,1-3-2.53l-1-3.49c-1.8,1.31-2.56,2.2-1.2,4.46,1,1.71.16,2.86.94,4.66.54,1.25.57,3.09,1.86,4.85s6.67,4.43,8.12,4.58c4.64.49,10-.18,14.07.21,3.23.16,6.58.37,13.07.73,8.25.46,22.61,1.41,27.46-.36C288.63,228.73,286.3,222.35,283.16,219Z" style="fill:#ffa8a7"></path><path d="M273.22,214.17c-1.7.22-3.36.57-5,1l-5,1.09c-3.35.69-6.72,1.24-10.11,1.69-1.7.19-3.4.36-5.11.5l-2.55.19a15.17,15.17,0,0,1-2.61,0,8.54,8.54,0,0,1-2.56-.61,9.94,9.94,0,0,1-2.17-1.46,16.62,16.62,0,0,0-4.32-2.65,15.38,15.38,0,0,1,4.56,2.33,10.06,10.06,0,0,0,2.13,1.3,8.11,8.11,0,0,0,2.41.46,43.31,43.31,0,0,0,5-.31q2.54-.24,5.07-.57c3.38-.37,6.73-.93,10.09-1.49A86.18,86.18,0,0,1,273.22,214.17Z" style="fill:#f28f8f"></path></g></g><path id="freepik--Thoughts--inject-3" d="M256.55,109.66a8.31,8.31,0,0,1-2.5,2.68,2.37,2.37,0,0,1-1.39.44c1.27-1.43,2.63-3.78,1.84-5.66a2.29,2.29,0,0,0-2.5-1.33l-.19-.21c-1.59-1.58-4.32-1.26-6.16-.29a7.87,7.87,0,0,0-1.6-.2,2.86,2.86,0,0,0-.19-1.16,1.39,1.39,0,0,0-.11-.21A14.74,14.74,0,0,0,244.8,102c.51-1,1.15-2.39.54-3.5a4.09,4.09,0,0,0-3-1.64,12.86,12.86,0,0,0-5.67.67,11.94,11.94,0,0,0-5.57.55,25.52,25.52,0,0,0-7.93,3.66,25,25,0,0,0-5.46,5.31,7.47,7.47,0,0,0-1.52,4.14,3.51,3.51,0,0,0,.65,2.09c-.2.37-.4.73-.58,1.11a5.82,5.82,0,0,0-.68,3.76,4.35,4.35,0,0,0,2.39,2.6,11.91,11.91,0,0,0,8.33.93h0c2.56.9,5.4-.22,7.74-1.27a28.3,28.3,0,0,0,4.54-2.59,6,6,0,0,0,1.18.22,12.09,12.09,0,0,0,8.33-2.46,9.15,9.15,0,0,0,4.11-2.31,2.6,2.6,0,0,0,2.13-.38,7.06,7.06,0,0,0,2.59-2.81C257.09,109.69,256.76,109.3,256.55,109.66Zm-2.39-1.46a6.29,6.29,0,0,1-1.1,3,9.27,9.27,0,0,1-1.11,1.39,2.29,2.29,0,0,1-.73-.49l0,0c1-1.56,2-4,1.1-5.79A1.68,1.68,0,0,1,254.16,108.2Zm-3.37,3.43c-1.09-1.63-1.19-4.63,1.06-5.24C252.72,107.86,251.7,110.16,250.79,111.63Zm.61-5.8.07.08a2.62,2.62,0,0,0-1.42,1.06,4.67,4.67,0,0,0,.5,5l-.12.18a12.18,12.18,0,0,1-2.72,2.83,6.15,6.15,0,0,1-3,.09,2.51,2.51,0,0,1-1.63-1.24,27.3,27.3,0,0,0,2.69-3.3,8.24,8.24,0,0,0,1.69-3.2,1.68,1.68,0,0,0-1-1.81C248.09,104.88,250.09,104.7,251.4,105.83ZM226.19,121a3.71,3.71,0,0,1-2.23-2.17,5,5,0,0,1,.4-3.34l.37,0a23.84,23.84,0,0,0,7.74-2.6A37.41,37.41,0,0,0,236,110.8a8.36,8.36,0,0,0-.41,2.37,6,6,0,0,0,.49,2.67c-.75.59-1.51,1.15-2.29,1.67A24.15,24.15,0,0,1,226.19,121Zm15.22-15.56a8.33,8.33,0,0,0-2.64,1.34,8.13,8.13,0,0,0-2.3,2.87l-.38.28a35.91,35.91,0,0,1-6.45,3.5,20.23,20.23,0,0,1-5,1.41,21.3,21.3,0,0,1,4-5.7,23.54,23.54,0,0,1,5.52-4.47,12.63,12.63,0,0,1,6.71-1.81,3.14,3.14,0,0,1,2.12.71,19.88,19.88,0,0,1-1.31,1.6C241.59,105.29,241.49,105.37,241.41,105.47Zm-1.16,1.16c-.76.71-1.56,1.39-2.39,2a7.45,7.45,0,0,1,1.73-1.63A5.52,5.52,0,0,1,240.25,106.63Zm-4,5.91a8,8,0,0,1,.69-2.36c.95-.68,1.88-1.38,2.76-2.14s1.51-1.35,2.21-2.08a8.53,8.53,0,0,1,1.41-.26,12.18,12.18,0,0,1-.78,2.25,20.44,20.44,0,0,1-6,7.57A6.17,6.17,0,0,1,236.25,112.54Zm5.92-2.39a6.53,6.53,0,0,0-.11,1.17,6.19,6.19,0,0,0,.41,2.23,29,29,0,0,1-4.2,3.62,2.81,2.81,0,0,1-1.42-1A22.18,22.18,0,0,0,242.17,110.15Zm.49,2.34a6.42,6.42,0,0,1,2.44-6.13,6.34,6.34,0,0,1,.72-.46l.28.07c1.64.55.29,2.45-.28,3.35a27.89,27.89,0,0,1-1.93,2.64c-.34.42-.69.82-1.06,1.22A5,5,0,0,1,242.66,112.49Zm2.28-6.76a6.53,6.53,0,0,0-1.28,1.18,8.71,8.71,0,0,0,.33-1.24A6,6,0,0,1,244.94,105.73Zm-1.52-1.15a4.73,4.73,0,0,1,0,.53q-.41,0-.81.09c.26-.3.51-.62.75-.93A1.29,1.29,0,0,1,243.42,104.58Zm-5.55-6.73a13.82,13.82,0,0,1,3.56-.48c1.08,0,3,.23,3.46,1.44s-.51,2.56-1,3.47c-.17.3-.37.57-.56.85a3.47,3.47,0,0,0-1.78-.78A12.22,12.22,0,0,0,234,104a24.15,24.15,0,0,0-6.28,5.15,19.89,19.89,0,0,0-3.86,5.82c-.34,0-.67,0-1,0a9.9,9.9,0,0,1-3.41-.58,5.88,5.88,0,0,1-1.92-1.1,22.68,22.68,0,0,1,2.61-3.68A44.84,44.84,0,0,1,231,100.86a26.83,26.83,0,0,1,6.12-2.78,5.2,5.2,0,0,1,1.48.63c.25.16.24-.29.06-.41a5.31,5.31,0,0,0-.81-.44Zm-21.1,14.22a5.5,5.5,0,0,1,.91-4.11,17.86,17.86,0,0,1,2.61-3.11c3.27-3.3,6.24-5,11.8-6.57a12.4,12.4,0,0,1,3.41-.39c-.46.17-.9.35-1.33.54a40.08,40.08,0,0,0-7.32,4.36,45.39,45.39,0,0,0-6.18,5.22,25.16,25.16,0,0,0-3.61,4.74A2.29,2.29,0,0,1,216.77,112.07ZM220,121a7.32,7.32,0,0,1-3.18-1.66c-1.07-1.1-.81-2.63-.29-3.93a16.91,16.91,0,0,1,.75-1.62l.25.21a9.28,9.28,0,0,0,6.13,1.61c-.06.18-.13.35-.18.53a4.4,4.4,0,0,0,.25,3.52,4.57,4.57,0,0,0,1.63,1.58A11.88,11.88,0,0,1,220,121Zm13.49-1.06c-1.8.8-4,1.66-6,1.43a24,24,0,0,0,6-2.78,33.85,33.85,0,0,0,3-2.1c.07.09.13.18.21.27a3.47,3.47,0,0,0,1.11.79A28.51,28.51,0,0,1,233.47,119.9Zm6.59-2.42a7,7,0,0,1-.9-.09,28.3,28.3,0,0,0,3.65-3.18,3.12,3.12,0,0,0,.27.43,3.86,3.86,0,0,0,3,1.17c.17,0,.33,0,.5,0A11.62,11.62,0,0,1,240.06,117.48Zm9.29-3a12.13,12.13,0,0,0,1.63-1.95,4.64,4.64,0,0,0,.4.36l.2.12A9.17,9.17,0,0,1,249.35,114.46Z" style="fill:#D8B9FF"></path></g></g></svg>